<svg fill="#000000" width="80px" height="80px" viewBox="-32 -32 96.00 96.00" version="1.1"
     xmlns="http://www.w3.org/2000/svg" stroke="#000000" stroke-width="0.00032">
    <g id="SVGRepo_bgCarrier" stroke-width="0"></g>
    <g id="SVGRepo_tracerCarrier" stroke-linecap="round" stroke-linejoin="round" stroke="#fafafa" stroke-width="1.984">
        <title>circular-saw</title>
        <path d="M16 1v4.5h-10.5l3 3-7.5 7.5h4.5v10.5l3-3 7.5 7.5v-4.5h10.5l-3-3 7.5-7.5h-4.5v-10.5l-3 3-7.5-7.5zM16 8.5c4.142 0 7.5 3.358 7.5 7.5s-3.358 7.5-7.5 7.5-7.5-3.358-7.5-7.5c0-4.142 3.358-7.5 7.5-7.5zM19 16c0 1.657-1.343 3-3 3s-3-1.343-3-3 1.343-3 3-3 3 1.343 3 3z"></path>
    </g>
    <g id="SVGRepo_iconCarrier">
        <title>circular-saw</title>
        <path d="M16 1v4.5h-10.5l3 3-7.5 7.5h4.5v10.5l3-3 7.5 7.5v-4.5h10.5l-3-3 7.5-7.5h-4.5v-10.5l-3 3-7.5-7.5zM16 8.5c4.142 0 7.5 3.358 7.5 7.5s-3.358 7.5-7.5 7.5-7.5-3.358-7.5-7.5c0-4.142 3.358-7.5 7.5-7.5zM19 16c0 1.657-1.343 3-3 3s-3-1.343-3-3 1.343-3 3-3 3 1.343 3 3z"></path>
    </g>
</svg>